<?xml version="1.0" encoding="UTF-8"?>
<svg xmlns="http://www.w3.org/2000/svg" id="Layer_1" data-name="Layer 1" viewBox="0 0 24 24">
  <path d="m22.199,10.542c1.145-1.041,1.801-2.524,1.801-4.07V1.285c0-.516-.294-.965-.767-1.172-.473-.207-1.002-.118-1.382.234l-1.163,1.078c-1.373-.595-3.003-.595-4.376,0l-1.163-1.078c-.38-.352-.91-.441-1.382-.234-.473.207-.767.656-.767,1.172v4.972c0,1.169.349,2.27.944,3.188-9.343,3.25-8.944,12.848-8.939,12.919v.453c-1.993-.456-4.005-1.756-4.005-3.817,0-1.708.79-2.981,1.554-4.213.711-1.146,1.446-2.333,1.446-3.787,0-2.43-1.374-4-3.5-4-.276,0-.5.224-.5.5s.224.5.5.5c2.256,0,2.5,2.098,2.5,3,0,1.169-.601,2.139-1.296,3.26-.798,1.288-1.704,2.748-1.704,4.74,0,3.411,3.913,5,6.558,5h16.942c.276,0,.5-.224.5-.5s-.224-.5-.5-.5h-1.5v-12.286c.067-.056.134-.113.199-.173ZM14,1.285c0-.165.117-.234.167-.256.024-.011.066-.025.117-.025.056,0,.121.017.185.076l1.411,1.308c.154.144.381.173.568.078,1.276-.656,2.827-.656,4.104,0,.187.095.414.065.568-.078l1.411-1.308c.12-.113.251-.074.302-.051.05.022.167.091.167.256v5.187c0,1.265-.537,2.479-1.474,3.331-.949.864-2.182,1.271-3.47,1.148-2.274-.217-4.056-2.279-4.056-4.694V1.285Zm7,21.715h-3v-1.5c0-2.775-2.724-5.5-5.5-5.5-.276,0-.5.224-.5.5s.224.5.5.5c2.229,0,4.5,2.271,4.5,4.5v1.5H6.558c-.18,0-.365-.008-.553-.025v-.638c-.005-.092-.382-9.163,8.597-12.058.878.924,2.052,1.542,3.36,1.667.183.018.365.026.546.026.88,0,1.727-.205,2.493-.598v11.626Zm-1.5-17.029c0-.552.448-1,1-1s1,.448,1,1-.448,1-1,1-1-.448-1-1Zm-4,0c0-.552.448-1,1-1s1,.448,1,1-.448,1-1,1-1-.448-1-1Z"/>
</svg>
