<svg id="Layer_1" data-name="Layer 1" xmlns="http://www.w3.org/2000/svg" viewBox="0 0 4000 4000"><defs><style>.cls-1{fill:#83fbff;}.cls-2{fill:#fff;}.cls-3{opacity:0.2;}.cls-4{fill:#000072;}.cls-5{fill:#ff9343;}.cls-6{fill:#ffad40;}.cls-7{opacity:0.5;}.cls-8{fill:#efefef;}.cls-9{fill:#f9d3b7;}.cls-10{fill:#512717;}.cls-11{fill:#f27e80;}.cls-12{fill:#ff5c64;}.cls-13{opacity:0.35;}.cls-14{fill:#ff999e;}.cls-15{opacity:0.3;}.cls-16{fill:#ff0068;}</style></defs><rect class="cls-1" width="4000" height="4000"/><path class="cls-2" d="M2281.66,3063.38c110,99.54,365.54,116,471.41-7.81,75.94-88.78,79.66-239,19-362.36-69.48-141.44-152.89-291.58-102.46-413.11,28-67.41,98.31-98.93,154.05-77.38,24.89,9.63,56.76,38.21,32.91,136-24.11,98.76,18.28,132.34,34.55,140.66,78.83,40.31,199.48-22.21,219.85-172,18.95-139.29-64.87-304.3-250-325.43-248.83-28.4-379.39,180.55-372.26,341,11.49,258.67,229.18,441.08,152.95,582.29-51.41,95.25-238.82,73.49-318.93-23.58"/><path class="cls-2" d="M2281.64,3063.39c110,99.54,365.56,116,471.45-7.83,75.9-88.77,79.66-239,19-362.34-69.46-141.45-152.87-291.59-102.42-413.1,28-67.42,98.25-98.94,154-77.39h0c24.9,9.61,56.79,38.2,32.93,135.92-24.11,98.78,18.27,132.38,34.55,140.67,78.81,40.31,199.46-22.21,219.83-172,18.95-139.28-64.85-304.29-250-325.41q-17.52-2-34.32-2.47c-226.48-6.42-344.73,190.54-337.92,343.41,11.48,258.66,229.17,441.08,152.94,582.27-51.4,95.25-238.82,73.5-318.94-23.56Z"/><path class="cls-2" d="M2281.64,3063.38c110,99.54,365.57,116,471.44-7.81,75.92-88.79,79.68-239,19-362.34-37.44-76.24-78.93-155-101.33-230.47v0a5.38,5.38,0,0,1-.2-.65c-19-64.28-24.08-126.13-.9-181.95,28-67.42,98.25-99,154-77.4h.06c24.9,9.59,56.79,38.21,32.94,135.91-24.12,98.8,18.25,132.39,34.52,140.68,53.74,27.46,126.94,7.17,174.52-56,22.21-29.46,38.83-68.3,45.32-115.95,19-139.28-64.87-304.28-250-325.41q-17.55-2-34.32-2.47c-226.49-6.41-344.74,190.54-337.93,343.41,11.47,258.67,229.17,441.07,152.93,582.27-51.38,95.27-238.8,73.52-318.93-23.56Z"/><path class="cls-2" d="M2281.64,3063.38c110,99.54,365.57,116,471.44-7.81,44.73-52.32,64.41-125.94,60.58-202.86v-.06a409.92,409.92,0,0,0-41.55-159.42c-37.44-76.24-78.93-155-101.33-230.47v0a5.38,5.38,0,0,1-.2-.65c-19-64.28-24.08-126.13-.9-181.95,28-67.42,98.25-99,154-77.4h.06c24.9,9.59,56.79,38.21,32.94,135.91-24.12,98.8,18.25,132.39,34.52,140.68,53.74,27.46,126.94,7.17,174.52-56,22.21-29.46,38.83-68.3,45.32-115.95,19-139.28-64.87-304.28-250-325.41q-17.55-2-34.32-2.47c-226.49-6.41-344.74,190.54-337.93,343.41,11.47,258.67,229.17,441.07,152.93,582.27-24.37,45.19-79.35,64.05-139,61-66.06-3.34-137.83-33.52-180-84.57Z"/><g class="cls-3"><path class="cls-4" d="M2281.64,3063.38c110,99.54,365.57,116,471.44-7.81,44.73-52.32,64.41-125.94,60.58-202.86-1.07,9.44-26.35,213.2-210,206.88-86.42-3-102.92-51.67-100.91-93.42-66.06-3.34-137.83-33.52-180-84.57Z"/></g><g class="cls-3"><path class="cls-4" d="M2670.58,2462.08c-19-64.28-24.08-126.13-.9-181.95,28-67.42,98.25-99,154-77.4h.06c24.9,9.59,56.79,38.21,32.94,135.91-24.12,98.8,18.25,132.39,34.52,140.68,53.74,27.46,126.94,7.17,174.52-56-22.53,15.53-55.17,30.63-97.05,30.63-88.65,0-85-88.59-71.64-149.36,11.54-52.42,14.59-165.32-84.28-175.86S2594.15,2235.14,2670.58,2462.08Z"/></g><path class="cls-5" d="M2823.65,2202.73h.06c24.9,9.59,56.79,38.21,32.94,135.91-24.12,98.8,18.25,132.39,34.52,140.68,53.74,27.46,126.94,7.17,174.52-56-22.53,15.53-55.17,30.63-97.05,30.63-88.65,0-85-88.59-71.64-149.36,10.12-46,13.71-138.45-52.22-167.59,4.51,11.51,8.43,22.75,4.31,32.58C2844.49,2180.72,2832.59,2188.85,2823.65,2202.73Z"/><path class="cls-6" d="M2823.66,2202.73h0c24.9,9.61,56.79,38.2,32.93,135.92-24.11,98.78,18.27,132.38,34.55,140.67,78.81,40.31,199.46-22.21,219.83-172,18.95-139.28-64.85-304.29-250-325.41q-17.52-2-34.32-2.47c8.49,26.19,28.3,37.08,32.38,50.18,8.59,27.7-20,52.74-22.24,74.79-2.24,21.48,20.3,46,12.27,65.11C2844.49,2180.72,2832.58,2188.84,2823.66,2202.73Z"/><path class="cls-5" d="M2823.65,2202.73h.06c24.9,9.59,56.79,38.21,32.94,135.91-24.12,98.8,18.25,132.39,34.52,140.68,53.74,27.46,126.94,7.17,174.52-56-22.53,15.53-55.17,30.63-97.05,30.63-88.65,0-85-88.59-71.64-149.36,10.12-46,13.71-138.45-52.22-167.59,4.51,11.51,8.43,22.75,4.31,32.58C2844.49,2180.72,2832.59,2188.85,2823.65,2202.73Z"/><g class="cls-7"><path class="cls-2" d="M2565,2097.8c56.79-59.32,138.25-99.64,242.76-96.69q16.77.44,34.32,2.46a308.94,308.94,0,0,1,59.88,12.77c-7.27,2.27-13.07,6.32-16.63,12.22-11.77,19.39,5.22,51.18,37.89,71s68.72,20.13,80.45.75c3.86-6.36,4.64-14.07,2.73-22.27,68.91,65.73,97.6,163.4,85.67,250.95-6.48,47.59-23.08,86.39-45.22,115.82a189.42,189.42,0,0,0,18.8-21.49c22.21-29.46,38.83-68.3,45.32-115.95,19-139.28-64.87-304.28-250-325.41q-17.55-2-34.32-2.47C2709.94,1976.18,2622,2026.91,2565,2097.8Z"/></g><path class="cls-4" d="M2524,3158.94c-98.26,0-195.18-31.69-252.91-83.93l21-23.25c57.38,51.92,159,81.34,258.58,75,82.42-5.27,150-34.16,190.39-81.35,69.75-81.55,76.69-223.52,16.9-345.25q-7.74-15.75-15.64-31.61c-67.18-135.37-136.65-275.34-87.23-394.43,30.23-72.86,108.38-111.44,174.18-86,33.41,12.91,67.91,50.17,42.49,154.29-22.6,92.62,18.07,118.7,26.46,123,29.57,15.11,66.17,13.52,100.45-4.4,51.68-27,86.93-83.76,96.72-155.74,10-73.5-10.81-151.83-55.67-209.52-43.32-55.71-105.77-89.67-180.57-98.21-124.23-14.16-205.36,34.19-251.53,77.26-67.69,63.15-107.27,158-103.29,247.41,5.26,118.46,55.33,221.26,99.51,312,51.38,105.51,95.77,196.63,51.58,278.48-20.93,38.78-62.68,63.08-117.55,68.45-83.6,8.16-177-28.63-227.27-89.5l24.19-20c43.27,52.44,127.36,85.37,200,78.25,44.16-4.32,77.19-22.84,93-52.14,36.53-67.69-2.62-148.08-52.19-249.85-45.51-93.44-97.09-199.34-102.64-324.29-4.37-98.38,39-202.5,113.22-271.74,51-47.57,140.33-101,276.49-85.49,83.37,9.52,153.14,47.59,201.77,110.12,49.93,64.21,73.1,151.31,62,233-11.18,82.18-52.47,147.54-113.28,179.31-43.41,22.67-90.52,24.32-129.25,4.52-17-8.67-70.13-45.72-42.65-158.34,16.07-65.84,8.23-105.41-23.33-117.61-50.07-19.35-110.14,11.49-133.9,68.76-44,105.91,22.29,239.39,86.35,368.47q7.9,15.91,15.69,31.72c65.16,132.64,56.44,288.68-21.2,379.46-45.91,53.68-121.28,86.45-212.23,92.27C2543.2,3158.64,2533.61,3158.94,2524,3158.94Z"/><g class="cls-3"><ellipse class="cls-4" cx="2026.79" cy="3547.55" rx="818.02" ry="85.44" transform="translate(-67.78 39.59) rotate(-1.1)"/></g><path class="cls-6" d="M1817.7,2027.38c-208,147.61-433.58,539-419.85,784.07,10.81,192.94,152.08,205.63,346.73,180,89.4-11.76,296-614.63,296-614.63Z"/><path class="cls-2" d="M2040.6,2376.83s-90.3,263.53-177.34,445.48c-44.62,93.31-88.41,165.15-118.68,169.15-194.65,25.62-335.91,12.93-346.74-180-2.06-37,1.32-77.37,9.27-119.71,44.74-238,234-539,410.59-664.35Z"/><path class="cls-6" d="M1924.89,2195.41c-96.28-9.52-170.06-37.4-220.89-65.62,37.45-40.66,75.88-75.55,113.7-102.41Z"/><path class="cls-8" d="M1924.89,2195.41c-96.28-9.52-170.06-37.4-220.89-65.62,37.45-40.66,75.88-75.55,113.7-102.41Z"/><path class="cls-9" d="M2215.68,2058c-22.12,43.37-35.06,83.62-41.36,121.85-61.63,14.75-131.2,21.79-210.92,18.29-96.47-4.2-172.93-26.94-229-52.89,43.83-58.34,146.45-182.7,229.5-188.92C2078.75,1947.75,2160.73,1999.69,2215.68,2058Z"/><path class="cls-5" d="M2279.41,2144.78c-85.19,37.2-187.36,59-316,53.35-96.47-4.2-172.93-26.94-229-52.89,43.83-58.34,146.45-182.7,229.5-188.92,114.81-8.57,196.79,43.37,251.74,101.67C2243.65,2087.65,2264.66,2119,2279.41,2144.78Z"/><path class="cls-5" d="M2341.16,2113.68a625.47,625.47,0,0,1-122.93,54.05L2212,2027.38C2250.78,2043,2295.35,2072.86,2341.16,2113.68Z"/><g class="cls-3"><path class="cls-4" d="M1863.26,2822.31c-44.62,93.31-88.41,165.15-118.68,169.15-191.93,25.25-331.95,13.26-346.2-172.07,19,14.87,50,31.76,93.88,20.55,69.7-17.83,56.64-158.27,56.64-158.27s153.12,51.83,261.42,88.61a332.55,332.55,0,0,1,33.82,28.8A130.11,130.11,0,0,1,1863.26,2822.31Z"/></g><path class="cls-4" d="M1618.17,3017.14c-66.43,0-126.54-11.39-169.49-47-40.68-33.71-62.42-85.34-66.48-157.83-6.55-116.88,40.35-276.17,128.67-437,84.17-153.3,195.48-288.15,297.75-360.72l18.15,25.58c-197.6,140.21-427.11,523.25-413.26,770.4,3.55,63.3,21.6,107.61,55.18,135.44,60.35,50,167.28,43.94,273.84,29.92,11-1.44,55.7-27.51,169.09-302.16,61.94-150,113.64-300.51,114.15-302l29.67,10.17c-.52,1.51-52.53,152.92-114.83,303.81-129.12,312.75-176.25,319-194,321.29C1703.1,3012.75,1659.42,3017.14,1618.17,3017.14Z"/><path class="cls-4" d="M1459.3,2731.8c49.06-12.51,118.93,4.61,128.77,62.19,12.08,64-59,92.85-112,81.31,28.22-12.16,64.15-23.21,78.64-51.16,19.19-57.13-51.14-79.92-95.46-92.34Z"/><path class="cls-6" d="M2430.13,2749c-1.38,134.85,2.73,479.34,0,631.59,2,21.14,15.79,99.66-5.07,135.45-15.38,26.41-35,42.79-97.54,42.79H2159.88c-95,0-103.51-56.43-105.68-82.56-3.47-41.86,7.83-85.87,7.83-85.87l-33.72-329.78"/><path class="cls-6" d="M2425.07,3516.07c-15.4,26.41-35,42.76-97.55,42.76H2159.86c-95,0-103.48-56.43-105.66-82.55-3.46-41.85,7.82-85.85,7.82-85.85l-.45-4.61-33.29-325.2L2430.14,2749c-1.4,134.13,2.68,475.63,0,629.08,0,.82,0,1.69,0,2.51C2432.16,3401.76,2445.92,3480.28,2425.07,3516.07Z"/><path class="cls-6" d="M2425.07,3516.07c-15.4,26.41-35,42.76-97.55,42.76H2159.86c-95,0-103.48-56.43-105.66-82.55-3.46-41.85,7.82-85.85,7.82-85.85l-.45-4.61-33.29-325.2L2430.14,2749c-1.4,134.13,2.68,475.63,0,629.08,0,.82,0,1.69,0,2.51C2432.16,3401.76,2445.92,3480.28,2425.07,3516.07Z"/><path class="cls-2" d="M2425.07,3516.07c-15.4,26.41-35,42.76-97.55,42.76H2159.86c-95,0-103.48-56.43-105.66-82.55-3.46-41.85,7.82-85.85,7.82-85.85l-.45-4.61-24.84-242.56-8.45-82.64L2430.14,2749c-.87,81.69.33,240.28.78,386.44.29,93.89.29,182.62-.74,242.64,0,.82,0,1.69,0,2.51C2432.16,3401.76,2445.92,3480.28,2425.07,3516.07Z"/><g class="cls-3"><path class="cls-4" d="M2430.92,3135.43q-2.22-.67-4.57-1.48c-140.47-49.85-299.77-17.38-389.62,9.31l-8.45-82.64L2430.14,2749C2429.27,2830.68,2430.47,2989.27,2430.92,3135.43Z"/></g><path class="cls-6" d="M1984,2924.75c-13.17,95.47,27.41,437.63,17.92,531.63-8.5,84.18-63.56,103.4-137.93,103.4H1660.83c-90,0-91.06-77.54-84.68-106.43,9.4-42.52,51.42-69,76.82-76.24-91.61-384.55-113.35-662.55-113.35-662.55"/><path class="cls-6" d="M2001.89,3456.38c-8.5,84.17-63.58,103.4-138,103.4H1660.82c-90,0-91-77.54-84.68-106.44,9.4-42.47,51.41-68.92,76.8-76.21h0c-91.62-384.56-113.34-662.56-113.34-662.56L1984,2924.75c-10.92,79.29,15.21,328.63,18.91,464.75C2003.68,3417.34,2003.49,3440.43,2001.89,3456.38Z"/><path class="cls-2" d="M2001.89,3456.38c-8.5,84.17-63.58,103.4-138,103.4H1660.82c-74.15,0-87.91-52.62-86.9-87.33a105.42,105.42,0,0,1,2.22-19.11c9.4-42.47,51.41-68.92,76.8-76.21h0c-42.16-176.83-69.47-331.13-86.74-446.26-20.25-135.18-26.6-216.3-26.6-216.3L1984,2924.75c-10.92,79.29,15.21,328.63,18.91,464.75C2003.68,3417.34,2003.49,3440.43,2001.89,3456.38Z"/><g class="cls-3"><path class="cls-4" d="M2001.89,3456.38c-8.5,84.17-63.58,103.4-138,103.4H1660.82c-74.15,0-87.91-52.62-86.9-87.33,47.22,31.83,371.29,46.86,379.45-75.12,3.28-45.59-2.57-166.18-26.95-205.18-18-28.75-51.68-45.83-175-99.46-93-40.44-150.47-105.27-185.14-161.82-20.25-135.18-26.6-216.3-26.6-216.3L1984,2924.75c-10.92,79.29,15.21,328.63,18.91,464.75C2003.68,3417.34,2003.49,3440.43,2001.89,3456.38Z"/></g><path class="cls-4" d="M1863.94,3575.46h-203.1c-36.28,0-63.77-11.32-81.71-33.65-22.33-27.81-23.81-66.85-18.29-91.84,9.25-41.85,45.11-70.07,73.68-82.73-88.18-374.44-110.32-648.71-110.53-651.46l31.26-2.45c.22,2.77,22.74,281.37,113,660.15l3.47,14.58-14.4,4.13c-21.28,6.1-58,29-65.82,64.55-3.25,14.66-4.34,45,12.11,65.43,11.69,14.55,31,21.93,57.26,21.93h203.1c75,0,116.37-30,126.62-91.59,8-48.36.67-162.68-6.47-273.24-6.9-106.91-13.41-207.89-6.85-255.47l31.06,4.29c-6.12,44.43.59,148.51,7.09,249.16,7.25,112.33,14.74,228.48,6.11,280.41C2008.69,3534.73,1954.2,3575.46,1863.94,3575.46Z"/><path class="cls-4" d="M1847.44,3388.58c-59.53-7.78-121.33-11.67-180.32.87-2.48.64-8.09,2-10.17,2.83l-8-30.33c3-.58,5-.75,7.29-1,64.77-5.11,129.49,9.37,191.16,27.65Z"/><path class="cls-4" d="M1665.3,3420.25c-33,33.1-24.55,116.23,26.65,124.3l-7.43,30.46c-63.22-20.45-68.45-117.66-19.22-154.76Z"/><path class="cls-4" d="M1772.86,3420.25c-33,33.09-24.54,116.23,26.66,124.3l-7.43,30.46c-63.23-20.45-68.46-117.66-19.23-154.76Z"/><g class="cls-3"><path class="cls-4" d="M2436.4,3460.13c-.29,21.18-3.13,41.85-11.33,55.94-15.4,26.41-35,42.76-97.55,42.76H2159.86c-95,0-103.48-56.43-105.66-82.55-.46-5.52-.66-11.12-.66-16.6,17.13,16.85,45.85,29.74,94.33,29.74h191.27C2393.44,3489.42,2419.39,3478.63,2436.4,3460.13Z"/></g><path class="cls-4" d="M2445.81,2749.17c-1.3,203.75,2.72,427.88,0,631.71,4.37,36.5,14.16,96.11-4.62,138.19-13,26.94-36.53,45.42-65.14,50.91-29.52,7.32-95.57,3.67-126.13,4.54h-82c-42.67,1.83-99.85-9.55-119.78-56.49-6.85-15-9.15-31-9.9-45.41-1.5-29.57,1.92-57.28,8.58-86.11l-.42,5.49-33.72-329.78c-1.54-20.46,28.46-23.87,31.19-3.19l33.73,329.78a15.52,15.52,0,0,1-.41,5.5,312,312,0,0,0-6.48,38.13c-2.9,33.83-5.13,76.37,26.65,96.46,20.18,12.77,46.47,14.59,70.56,14.26h82l81.75-.07c25.8-.37,51.92-3.62,66.67-17.67,17.68-16.19,22.13-39.48,22.36-63.53.64-26.64-3-53-6.18-79.78q.89-79.52.88-159.4c-.21-78.57-.65-237.17-1.07-315.75-.16-52.67-.33-105.3.12-158.11.52-20.16,30.89-20.95,31.36.32Z"/><path class="cls-4" d="M2364.9,3393.67c-84.83-24.09-170.75-10.84-255.46,6.87,70.29-49.53,185.23-62.8,255.46-6.87Z"/><path class="cls-4" d="M2163.43,3420.25c-18.17,42.15-12.21,105.64,34.81,125.1l-16,27c-24.48-16.74-40.53-46.39-40.69-75.6-.2-27.09,6.28-54.49,21.86-76.48Z"/><path class="cls-4" d="M2300.65,3420.25c30.6,31.79,44.5,124.5,1.15,151.51l-14-28.08c2.46-.58,5.73-2.53,8.67-6.07,21.26-28.89,22.79-86.26,4.16-117.36Z"/><path class="cls-2" d="M2392,2943.26l-319.46,141.79c-140.72,20.72-464.76,19.2-535.9-259-2.31-8.77-4.29-17.8-6-27.11-8.81-47.41-10.79-102.16-4.08-165.27,13.06-122.92,96.48-318.93,186.41-458.66,0,0,142.29-210.55,251-218.66,114.81-8.57,196.79,43.37,251.74,101.67,63.81,67.64,91.21,143.85,91.21,143.85,5.52,40.53,15.07,83,26.52,125.6,31.4,116.7,77,233.66,91.91,310.65C2448.68,2758.58,2428.2,2872.9,2392,2943.26Z"/><g class="cls-3"><path class="cls-4" d="M2392,2943.26l-319.46,141.79c-140.72,20.72-464.76,19.2-535.9-259,82.59,88.36,269,154.27,508.63,96,254.54-61.91,261.59-216,187.06-592.62-12.68-64.1,36.91-46.76,101-1.94,31.4,116.7,77,233.66,91.91,310.65C2448.68,2758.58,2428.2,2872.9,2392,2943.26Z"/></g><g class="cls-3"><path class="cls-4" d="M2279.41,2144.78c-85.19,37.2-187.36,59-316,53.35-96.47-4.2-172.93-26.94-229-52.89,43.83-58.34,146.45-182.7,229.5-188.92,114.81-8.57,196.79,43.37,251.74,101.67C2243.65,2087.65,2264.66,2119,2279.41,2144.78Z"/></g><path class="cls-4" d="M2072.59,3085.05c-109.86,31.95-231.28,26.31-338.5-14.38-217.06-84-258.15-311.84-210-517.22,36.75-136.86,98.43-269,188.89-378.46-58.4,126.79-118.86,252.33-155.3,387-20.74,79.14-25.63,162.76-9.74,243,51.46,248.81,310.43,280.39,524.64,280Z"/><path class="cls-10" d="M2306.88,2201.82c33.59,130.11,89.18,257.3,125.09,386.56,26.87,102.29,24.74,214.45-17,312.38a302.56,302.56,0,0,1-22.92,42.51,453.2,453.2,0,0,0,23.22-91.84,586.44,586.44,0,0,0-11.89-231.08c-37-137.67-92-274.29-96.47-418.53Z"/><path class="cls-6" d="M2212,2027.38c184.17,74.26,498.61,468.11,454,839.68-14.56,121.18-81,174.74-214.87,162.63-39.63,7.65-131.48,11.76-170.08-35.77-30.78-37.91-30.23-108.92,14.7-138.67,0,0-64.93-4.3-59-66.28,4.31-45.32,58.18-66.83,84-72.95,3.26-53.47-24.93-262.28-95.86-402.34Z"/><path class="cls-2" d="M2665.94,2867.05c-14.58,121.19-81,174.75-214.87,162.64-39.63,7.66-131.5,11.78-170.1-35.76-30.77-37.94-30.19-108.92,14.71-138.66,0,0-64.92-4.33-59-66.28,2.31-24.19,18.7-41.57,37.4-53.43A157.8,157.8,0,0,1,2320.6,2716c3.26-53.47-24.92-262.29-95.86-402.35L2212,2027.38c161.82,65.25,424.1,377.09,455.2,703.81A631.63,631.63,0,0,1,2665.94,2867.05Z"/><g class="cls-3"><path class="cls-4" d="M2341.16,2113.68a625.47,625.47,0,0,1-122.93,54.05L2212,2027.38C2250.78,2043,2295.35,2072.86,2341.16,2113.68Z"/></g><g class="cls-3"><path class="cls-4" d="M2651.73,2929.17c-28.22,77.16-92.36,110.32-200.66,100.52-39.63,7.66-131.5,11.78-170.1-35.76-30.77-37.94-30.19-108.92,14.71-138.66,0,0-64.92-4.33-59-66.28a60.24,60.24,0,0,1,1.48-8.78c7.62,16,21.42,35.35,45.4,44,32.62,11.65,67.64,5.48,72.79,42.55,3.42,24.72-23.69,44-21.22,75.18,2.68,33.2,50.06,49.11,112.34,34.52C2447.44,2976.42,2592.24,3002.33,2651.73,2929.17Z"/></g><path class="cls-4" d="M2217.84,2012.83c102.09,44.56,184.31,132.11,252.59,217.59,134.11,174.89,230.73,393.83,213.14,618.17-2.28,27.72-6.59,56.66-16.47,84.31-33.55,97.63-123.7,121.85-217.44,112.41l4.38-.22a307.34,307.34,0,0,1-88.46,3.17c-46.56-4.42-97.18-26.21-113.48-74-17.25-45.29-7.6-104,34.93-132.12l7.62,28.72c-2.05-.16-3.12-.32-4.59-.52-20.79-3.27-40.44-11.69-54.44-28.62-21.93-27.38-19.1-69.51,2.76-95.71,20.13-24.19,49.1-37.7,78.61-45.29l-12,14.3c-.9-33.15-4.95-67.13-8.4-100.37-11.81-102.56-32.33-205.12-71.81-301A660,660,0,0,1,2270,2408c31.34,81.8,54.58,167.29,65,254.46,1.74,17.77,2.91,35.18,1.19,54.52a15.28,15.28,0,0,1-12,14.3c-27.92,7.09-63.1,23.86-70.81,52.61-7.31,30.64,10.93,51.28,41.1,55.46,16.43.07,23.25,19.53,9.81,29-18.52,12-28.74,35.4-29,59.51-.38,59.06,40.19,83.73,93.76,89.26,27.55,3.51,56.2.7,83.35-3,128.24,11.9,190.85-39.13,199.84-168.17,23.54-278.88-156.92-602.06-378-765.48-21.69-15.25-44.53-28.81-68.26-38.5l11.73-29.09Z"/><path class="cls-4" d="M2290.87,2840.33c19.38-3.22,40.25,6.59,43.18,27.26,1.51,12.39-2.21,24.81-6.57,36.21-.71-10.65-1.83-22.37-7.39-31.58-2.85-4-6.81-6.35-10.38-5.71-2.56.23-7.64,1.7-9.2,3.66l-9.64-29.84Z"/><path class="cls-4" d="M2293.2,2708.7c28.51.33,55.91,6.33,83.37,12.46-26.16,4.35-53.11,8.82-77.68,18.38l-5.69-30.84Z"/><path class="cls-4" d="M1327.14,1589.6c-88.48-58.27-186.06-96.79-288.31-121.81-14.71-3.91-29.67-6.77-44.74-11.5,11.55-1.71,23.23-2.69,34.89-3.51,108.24-4.34,235.9,45.4,298.16,136.82Z"/><path class="cls-4" d="M1318.76,1705.87c-103.3-24.55-211.56-36.16-312.79,2.84,85.71-70.61,222.54-59.53,312.79-2.84Z"/><path class="cls-2" d="M1433.55,1206.05l230.7-191.88L1930.83,792.5C1780.9,640.1,1486.16,474.64,1396.35,530c-17,10.51-30.19,34.32-39.33,68C1322.66,724.48,1344.85,989.51,1433.55,1206.05Z"/><g class="cls-3"><path class="cls-4" d="M1433.55,1206.05l230.7-191.88C1602.19,863,1447.15,517.49,1357,598,1322.66,724.48,1344.85,989.51,1433.55,1206.05Z"/></g><g class="cls-7"><path class="cls-2" d="M1353.36,613c8-19.12,18.05-32.9,29.88-40.21,86.48-53.34,362.65,97.93,517,245.23l30.63-25.49C1780.9,640.1,1486.16,474.64,1396.35,530,1376.94,542,1362.51,571.38,1353.36,613Z"/></g><path class="cls-4" d="M1433.57,1221.74a15.7,15.7,0,0,1-14.52-9.75c-109.2-266.51-125.69-636.92-31-695.33,62.62-38.62,189.87,16.47,260.14,52.75,106.64,55,219.21,136.31,293.76,212.1a15.68,15.68,0,0,1-22.36,22c-72.38-73.59-181.89-152.61-285.78-206.24-108-55.71-193.67-75.87-229.3-53.91-67.74,41.76-71.79,375.35,43.52,656.74a15.71,15.71,0,0,1-14.51,21.64Z"/><path class="cls-11" d="M1449.19,983.66c47.7-65.7,87.74-110.56,122.74-144.14,30.71-29.36,57.52-50,82.29-68.19-6.57-30.28-197.64-196.84-227.28-143.68-8.86,15.89-15,40-18.37,68.69C1397.86,785.14,1412.57,917.51,1449.19,983.66Z"/><path class="cls-12" d="M1408.57,696.34c12.35-15.73,31.24-34.4,48.58-30.23,29.53,7.1,92.28,105,114.78,173.41,30.71-29.36,57.52-50,82.29-68.19-6.57-30.28-197.64-196.84-227.28-143.68C1418.08,643.54,1412,667.67,1408.57,696.34Z"/><path class="cls-4" d="M1447.42,1012.78l-11.94-21.53c-50.19-90.57-62.66-298.75-22.24-371.24h0c4.65-8.33,16.45-21.71,43.29-17.7,65.4,9.75,205.36,130.35,213,165.71l2.15,9.94-8.19,6c-54.09,39.73-114.22,88.58-201.6,208.88Zm-6.79-377.5h0c-29.64,53.17-26.54,223.53,11.54,318,76.17-101.32,132-149.1,181.94-186.52-25.16-33.73-136-129.46-184.57-133.66C1442.21,632.41,1441.07,634.49,1440.63,635.28Z"/><path class="cls-6" d="M2064.22,829l360.31,299.08,155.72,129.25c99.46-225.28,122.66-506.22,79.76-625.24-8.83-24.49-20.44-42.08-34.77-51C2531.85,523.06,2222.27,680.53,2064.22,829Z"/><path class="cls-5" d="M2424.53,1128.09l155.72,129.25c99.46-225.28,122.66-506.22,79.76-625.24-31.85-34.15-81-56.76-117.21,62.8C2505.17,818.72,2453.67,1015,2424.53,1128.09Z"/><g class="cls-7"><path class="cls-2" d="M2064.22,829l22.71,18.84c164.25-140.2,468.9-273.64,534.78-244.08,53.55,24,58.56,206,44.88,352.55,28.38-182,13-341.47-41.35-375.21C2531.85,523.06,2222.27,680.53,2064.22,829Z"/></g><path class="cls-4" d="M2580.23,1273a15.69,15.69,0,0,1-14.34-22c123-278.53,121.58-612.79,51.07-656.59-83.61-51.94-385.84,99.35-542,246a15.68,15.68,0,1,1-21.47-22.86c78.6-73.82,197-152.05,308.88-204.17,73.56-34.26,206.59-85.75,271.17-45.64,98.39,61.13,77.66,431.84-38.94,695.9A15.69,15.69,0,0,1,2580.23,1273Z"/><path class="cls-2" d="M2020.2,687.84c-100.24-5.06-287.12-14-454.12,89.67-239.67,132-307.52,497.76-323.24,683.13-16.64,31.54-67.84,156.9-20.5,290,51.39,142,243.57,335,742.26,352.4,440.58,6,717.8-150.78,746.05-476.61,22.15-223.73-48.06-439-111.23-557.43,0,0-218.5-269.81-324.49-315.06C2194.79,719.78,2020.2,687.84,2020.2,687.84Z"/><path class="cls-2" d="M2710.65,1626.49c-28.23,325.81-305.45,482.64-746.06,476.58-498.67-17.41-690.86-210.33-742.24-352.37a328.71,328.71,0,0,1-12.71-46.16c-15.84-78.56-1.39-150.62,14-197.26,7.14-21.64,14.5-37.8,19.14-46.64,15.73-185.37,83.58-551.11,323.25-683.13,167-103.65,353.9-94.73,454.12-89.66,0,0,174.6,31.91,254.75,66.15,106,45.23,324.46,315.06,324.46,315.06C2662.59,1187.49,2732.81,1402.75,2710.65,1626.49Z"/><path class="cls-2" d="M2710.65,1626.49c-28.23,325.81-305.45,482.64-746.06,476.58-498.67-17.41-690.86-210.33-742.24-352.37a328.71,328.71,0,0,1-12.71-46.16c-15.84-78.56-1.39-150.62,14-197.26,7.14-21.64,14.5-37.8,19.14-46.64,15.73-185.37,83.58-551.11,323.25-683.13,167-103.65,353.9-94.73,454.12-89.66,0,0,174.6,31.91,254.75,66.15,106,45.23,324.46,315.06,324.46,315.06C2662.59,1187.49,2732.81,1402.75,2710.65,1626.49Z"/><g class="cls-3"><path class="cls-4" d="M2618.08,1877.23c-119.58,155.45-347,230.06-653.48,225.84-332.79-11.61-529.08-101.4-638.13-202.05,134.53,79.17,334.11,140.42,623,150.5C2240.39,2055.54,2469.47,1997.88,2618.08,1877.23Z"/></g><path class="cls-6" d="M2633.83,1142.4c-87.47,59.92-239.08,126.15-414.71,40.66C2006,1079.32,2011.54,840.45,2045.28,692.68,2096.49,702.85,2213.5,727.75,2275,754c106,45.2,324.44,315,324.44,315C2610.83,1090.5,2622.52,1115.13,2633.83,1142.4Z"/><path class="cls-6" d="M2275,754,2029.4,797.19a710.12,710.12,0,0,1,16.39-106.75C2118.17,700.23,2191.59,715.84,2275,754Z"/><path class="cls-4" d="M2553.26,1616.45c84.82-71.18,213.93-90.58,320.31-68.55,13.29,3.34,26.71,6.89,39.73,11.09-7.91.15-15.73,0-23.5-.18-5.57-.08-11.8-.44-17.4-.65-3.49.19-24.89.21-28.92.23-99.42.7-198.44,18.42-290.22,58.06Z"/><path class="cls-4" d="M2542.24,1757.84c102.24-35.67,240.08-16,309.42,73-91.45-61.6-201.53-74.41-309.42-73Z"/><ellipse class="cls-4" cx="2067.03" cy="1495.21" rx="135.6" ry="117.43" transform="translate(568.62 3559.92) rotate(-89.91)"/><ellipse class="cls-2" cx="2032.36" cy="1484.42" rx="48.47" ry="38.29" transform="translate(544.8 3514.48) rotate(-89.91)"/><g class="cls-3"><ellipse class="cls-2" cx="2101.33" cy="1552.97" rx="32.8" ry="21.2" transform="matrix(0, -1, 1, 0, 545.11, 3651.88)"/></g><ellipse class="cls-4" cx="1481.81" cy="1488.4" rx="131.56" ry="113.92" transform="translate(-8.89 2967.9) rotate(-89.91)"/><ellipse class="cls-2" cx="1448.18" cy="1477.93" rx="47.02" ry="37.14" transform="translate(-32 2923.81) rotate(-89.91)"/><g class="cls-3"><ellipse class="cls-2" cx="1515.08" cy="1544.43" rx="31.82" ry="20.57" transform="translate(-31.7 3057.12) rotate(-89.91)"/></g><path class="cls-4" d="M2173.83,1093.86S2091.71,978,2039.1,1000.24s-44.44,80.51-12.57,97.4C2072.81,1122.17,2173.83,1093.86,2173.83,1093.86Z"/><path class="cls-4" d="M1414.74,1121.57s51.66-113.56,100.73-103.08,51.66,62.1,27,82C1506.57,1129.27,1414.74,1121.57,1414.74,1121.57Z"/><path class="cls-4" d="M1632.4,1586.63c-1.7,24.55,24.15,48.14,44.28,62.64a45.3,45.3,0,0,0,47.59,3.31c21.94-11.58,50.81-31.37,52.52-55.92C1779.56,1556.79,1635.17,1546.76,1632.4,1586.63Z"/><g class="cls-13"><path class="cls-2" d="M1667.25,1580.38c-.32,4.54,9.53,9.25,17.14,12.21a31.65,31.65,0,0,0,17.61,1.22c8-1.87,18.35-5.18,18.67-9.72C1721.18,1576.71,1667.76,1573,1667.25,1580.38Z"/></g><path class="cls-11" d="M2353.51,815.58c55,40.52,119.89,92.46,212.39,218.49a195.11,195.11,0,0,0,11.73-23.19c25.52-58.69,38.23-148.42,36.14-222.83-1.28-46.32-8.22-86.7-21.4-110C2561.88,623.94,2360.63,785.43,2353.51,815.58Z"/><path class="cls-12" d="M2353.51,815.58c55,40.52,119.89,92.46,212.39,218.49a195.11,195.11,0,0,0,11.73-23.19c-9.48-53-54.94-108.59-73.77-152.79-39.08-91.7,29.3-153.58,56.63-145.33,16.2,4.9,42.47,53.8,53.28,75.29-1.28-46.32-8.22-86.7-21.4-110C2561.88,623.94,2360.63,785.43,2353.51,815.58Z"/><path class="cls-4" d="M2565.89,1049.75a15.7,15.7,0,0,1-12.64-6.4c-90.31-123.06-152.77-173.75-209-215.13a15.69,15.69,0,0,1-6-16.23c8-33.94,153.74-150.22,221.77-159.87,28.81-4.09,41.18,9.66,46,18.21h0c41.64,73.85,26.69,282.32-26.67,371.77a15.7,15.7,0,0,1-12.72,7.64ZM2374.17,811.38c52,39,110.14,88.69,189.24,193.13,41-93.18,45.88-264.54,15.31-318.77-.5-.88-2-3.57-11-2.92C2517.4,686.41,2401.68,777.93,2374.17,811.38Z"/><ellipse class="cls-14" cx="2384.14" cy="1669.15" rx="99.33" ry="121.25" transform="translate(632.82 3993.61) rotate(-88)"/><path class="cls-14" d="M1339.25,1610.5c-1.91,54.83-53.68,97.49-115.62,95.33a116.91,116.91,0,0,1-14-1.29c-15.84-78.56-1.39-150.62,14-197.26,2.28-.07,4.55-.07,6.87,0C1292.5,1509.46,1341.16,1555.66,1339.25,1610.5Z"/><path class="cls-4" d="M2126.18,2097.33c165.45-37.41,343.22-78,460.65-209.12,66.49-73.44,103.1-171.22,107.59-269.79,8.12-100.11-1.26-201.11-21.82-299.34-18.5-85.26-44-167-73.18-250,69.57,96.35,104,213.71,122.51,330,24.58,174.67,11.85,373.27-109.44,511.81-119.44,135.58-311.44,192.94-486.31,186.49Z"/><path class="cls-4" d="M2019.8,695.67c-97.2,2.06-193.58,4.16-287.68,28.83a599.53,599.53,0,0,0-124.24,48.09c-33.12,18.52-66.68,37.69-95.51,62.1A483.66,483.66,0,0,0,1458.88,888c-130.88,158-178.52,377.71-198.06,577.87-39.23,77.95-50.59,171.77-28.81,256.33,39.4,140.16,170.52,233.08,299.77,285.84,4.53,1.67,18.7,8,23.26,9.68,14.44,4.84,41.24,14.79,55.57,19.72,27.05,7.16,54,16.9,81.41,22.8,21.77,5.08,44.12,11.19,66.19,15.14,44,9.18,90.14,16.42,134.45,23.82-91.46-.81-183.87-10-272.66-32.61l-16.82-4c-14.86-4.58-43.07-13.05-58-17.73-18.44-7.44-38.44-14.43-56.65-22.21-11.72-5.17-36.29-17-47.27-22.45-7.66-4.28-22.79-13-30.42-17.28-105.63-62-200.68-161.54-220.71-286.46-13.91-82.57-.08-169.21,36.5-244.39,4.25-119.67,49.64-320.57,117.85-452.26,48-95.27,118.44-184.59,213.36-236.64a618.4,618.4,0,0,1,166.3-69.52c45-11.15,92.05-18.81,138.3-20.91,52.77-2.87,106,.24,158.23,7.28,9.38,1.81,8.95,15-.84,15.65Z"/><path class="cls-2" d="M2274.93,754c-185.88-85.14-322.4-58.08-508.39-104.47-46.42-11.58-129.63-50.23-129.63-50.23s-6.87,86.08,12.33,133.58c-104.13,9.86-134.78,59.72-278.48,79.83,31.38,37.87,93.49,85.81,172.23,70.07Z"/><path class="cls-6" d="M2275,754,2029.4,797.19a710.12,710.12,0,0,1,16.39-106.75C2118.17,700.23,2191.59,715.84,2275,754Z"/><path class="cls-4" d="M2274.93,754c-52.65-17.19-105.38-31-159.06-39.29-108.46-17.48-219.72-16.76-328-41.33-55.39-11.26-107.19-35-157.51-59.86l22.23-13c-.74,10.48-1.09,21.69-1.14,32.56,0,21.54,1,43.47,4.58,64.54a148.21,148.21,0,0,0,7.79,29.35c3.91,9.45-2.74,20.44-12.87,21.47a338.89,338.89,0,0,0-66.9,16.6c-21.63,7.8-43.33,17.74-66.15,27.21a523.4,523.4,0,0,1-144.71,37.46l10.86-28c38.37,48.39,96.32,80.09,159,81-66,30-141.72-7.22-185.47-59.1-9.07-9.84-2.34-26.8,10.85-28,46.79-7.7,91.42-20,135.22-38.35,45.38-19.25,94.25-38.86,144.17-40.06l-13.06,21.49c-13-34.26-14.36-70-14.66-105.78.06-11.65.39-23,1.24-34.93.31-10.91,12.63-17.92,22.24-13,49.85,20,99.48,41.76,152.23,52.37,159.61,35.12,335.63,26.29,479.18,116.55Z"/><path class="cls-2" d="M1649.24,732.87c36.33-.07,80.67,13.51,109.28,10"/><path class="cls-4" d="M1649.21,717.19c39,4.8,70.93,22.93,109.31,25.7-35,7.94-74.81,0-109.25,5.66l-.06-31.36Z"/><path class="cls-4" d="M1684.06,1651.22c2.15,20.77,19.81,53.1,22.11,53,1.54,0,3.42-31.48,10.13-52.9"/><path class="cls-4" d="M1761.54,1768.17c43.83,32.79,110.73,29,147.52-10.82,11.22-12.35,18.27-27.77,22-44.85a12.29,12.29,0,0,1,24.32,3c-1.46,45.35-38.6,84.62-82.3,93.34-40.59,9.68-90-4.09-111.53-40.67Z"/><path class="cls-4" d="M1907.81,1710.47c21.31-27.33,68.62-2,57.17,30.9a412.34,412.34,0,0,0-57.17-30.9Z"/><path class="cls-2" d="M1079.1,1130.82a181.62,181.62,0,1,0-60.84,60.78l84.2,18.88Z"/><g class="cls-7"><path class="cls-2" d="M908.78,889.87c93.39-9.59,177.49,53.24,196.53,143a181.61,181.61,0,0,0-.92-19.41c-10.26-100-99.62-172.68-199.59-162.42a182,182,0,0,0-162.42,199.59,186.59,186.59,0,0,0,3,19.28C745.77,978.12,815.37,899.46,908.78,889.87Z"/></g><path class="cls-4" d="M923.42,1234a198,198,0,1,1,173-101.08l21.42,73A16,16,0,0,1,1099,1226.1l-78.06-17.51A196.22,196.22,0,0,1,944,1233,200.69,200.69,0,0,1,923.42,1234Zm.69-363.95a169.66,169.66,0,0,0-17.26.88,166,166,0,0,0-148.14,182c9.35,91,91,157.47,182,148.13a164.31,164.31,0,0,0,69.21-23.22,16,16,0,0,1,11.81-1.94l57.7,12.94-15.72-53.59a16,16,0,0,1,1.7-12.86A165.95,165.95,0,0,0,924.11,870.09Z"/><g class="cls-15"><path class="cls-4" d="M1080.12,1129.07a210.18,210.18,0,0,1-338-102.63,182,182,0,0,0,276.18,165.16l84.2,18.88-23.36-79.66C1079.45,1130.25,1079.78,1129.65,1080.12,1129.07Z"/></g><path class="cls-16" d="M982,985h0c-15.75-15.74-41.28-12.92-57,2.82l-2.45,2.46-2.45-2.46C904.31,972,878.77,969.22,863,985h0a40.32,40.32,0,0,0,0,57l2.45,2.45L915,1094a10.63,10.63,0,0,0,15,0l49.51-49.51L982,1042A40.34,40.34,0,0,0,982,985Z"/></svg>