<?xml version="1.0" encoding="UTF-8"?>
<svg xmlns="http://www.w3.org/2000/svg" id="Layer_1" data-name="Layer 1" viewBox="0 0 24 24">
  <path d="m9,12c3.309,0,6-2.691,6-6S12.309,0,9,0,3,2.691,3,6s2.691,6,6,6Zm0-11c2.757,0,5,2.243,5,5s-2.243,5-5,5-5-2.243-5-5S6.243,1,9,1Zm1.5,13.5c0,.276-.224.5-.5.5h-.5c-4.687,0-8.5,3.813-8.5,8.5,0,.276-.224.5-.5.5s-.5-.224-.5-.5c0-5.238,4.262-9.5,9.5-9.5h.5c.276,0,.5.224.5.5Zm13.414,2.259c-.203-.557-.738-.931-1.331-.931h-2.398l-.856-2.406c-.206-.551-.739-.922-1.328-.922s-1.122.371-1.33.929l-.854,2.399h-2.398c-.592,0-1.126.373-1.33.927-.205.556-.039,1.187.421,1.576l1.912,1.556-.757,2.272c-.179.573.023,1.2.503,1.558.243.183.545.283.849.283.282,0,.555-.083.788-.239l2.208-1.478,2.248,1.464c.504.326,1.16.301,1.639-.065.476-.367.668-.996.477-1.576l-.781-2.227,1.903-1.55c.453-.382.621-1.013.418-1.569Zm-1.056.799l-2.169,1.767c-.164.133-.227.354-.156.553l.895,2.55c.056.168,0,.354-.14.46-.143.108-.336.116-.484.02l-2.524-1.644c-.167-.109-.384-.107-.551.003l-2.482,1.662c-.143.095-.342.092-.48-.014-.142-.105-.201-.29-.15-.451l.862-2.591c.065-.197.002-.415-.159-.545l-2.172-1.767c-.132-.112-.181-.297-.12-.461.06-.164.217-.273.391-.273h2.751c.212,0,.4-.133.471-.332l.971-2.725c.121-.325.662-.318.779-.007l.973,2.731c.07.199.259.332.471.332h2.751c.175,0,.332.11.392.274.06.164.01.35-.116.457Z"/>
</svg>
