<svg width="136" height="57" viewBox="0 0 136 57" fill="none" xmlns="http://www.w3.org/2000/svg">
<g clip-path="url(#clip0_43_295)">
<path d="M25.3028 26.8629C17.454 26.8629 6.32572 37.4791 6.32572 44.1805C6.32572 47.1986 8.9756 49.0017 13.4164 49.0017C18.2437 49.0017 21.4313 46.8328 25.3028 46.8328C29.2079 46.8328 32.4044 49.0017 37.1892 49.0017C41.63 49.0017 44.2799 47.1986 44.2799 44.1805C44.2799 37.4791 33.1516 26.8629 25.3028 26.8629ZM10.7458 25.7723C9.71788 22.7758 6.55107 20.8352 3.67288 21.4371C0.794692 22.039 -0.704696 24.956 0.32323 27.9525C1.35116 30.949 4.51796 32.8896 7.39615 32.2877C10.2743 31.6858 11.7737 28.7689 10.7458 25.7723ZM19.1194 23.9753C22.1775 23.2714 23.7076 19.6565 22.5373 15.9015C21.367 12.1466 17.9393 9.67412 14.8812 10.3781C11.8231 11.082 10.2931 14.6969 11.4634 18.4518C12.6336 22.2068 16.0624 24.6801 19.1194 23.9753ZM46.9317 21.438C44.0536 20.8361 40.8877 22.7767 39.8588 25.7732C38.8309 28.7697 40.3303 31.6867 43.2085 32.2886C46.0867 32.8905 49.2525 30.9499 50.2814 27.9534C51.3093 24.9568 49.8099 22.0399 46.9317 21.438ZM31.4862 23.9753C34.5443 24.6792 37.972 22.2068 39.1422 18.4518C40.3125 14.6969 38.7825 11.0829 35.7244 10.3781C32.6663 9.67325 29.2386 12.1466 28.0683 15.9015C26.8981 19.6565 28.4281 23.2714 31.4862 23.9753Z" fill="#FAD16F"/>
</g>
<path d="M67.4712 15C67.4712 13.6267 67.7779 12.4 68.3912 11.32C69.0179 10.2267 69.8646 9.38 70.9312 8.78C72.0112 8.16667 73.2179 7.86 74.5512 7.86C76.1112 7.86 77.4779 8.26 78.6512 9.06C79.8246 9.86 80.6446 10.9667 81.1112 12.38H77.8912C77.5712 11.7133 77.1179 11.2133 76.5312 10.88C75.9579 10.5467 75.2912 10.38 74.5312 10.38C73.7179 10.38 72.9912 10.5733 72.3512 10.96C71.7246 11.3333 71.2312 11.8667 70.8712 12.56C70.5246 13.2533 70.3512 14.0667 70.3512 15C70.3512 15.92 70.5246 16.7333 70.8712 17.44C71.2312 18.1333 71.7246 18.6733 72.3512 19.06C72.9912 19.4333 73.7179 19.62 74.5312 19.62C75.2912 19.62 75.9579 19.4533 76.5312 19.12C77.1179 18.7733 77.5712 18.2667 77.8912 17.6H81.1112C80.6446 19.0267 79.8246 20.14 78.6512 20.94C77.4912 21.7267 76.1246 22.12 74.5512 22.12C73.2179 22.12 72.0112 21.82 70.9312 21.22C69.8646 20.6067 69.0179 19.76 68.3912 18.68C67.7779 17.6 67.4712 16.3733 67.4712 15ZM92.0628 19.34H86.5028L85.5828 22H82.6428L87.6628 8.02H90.9228L95.9428 22H92.9828L92.0628 19.34ZM91.3028 17.1L89.2828 11.26L87.2628 17.1H91.3028ZM107.319 8.04V10.3H103.599V22H100.799V10.3H97.0792V8.04H107.319Z" fill="#FAD16F"/>
<path d="M76.7112 46.0485H71.1512L70.2312 48.7085H67.2912L72.3112 34.7285H75.5712L80.5912 48.7085H77.6312L76.7112 46.0485ZM75.9512 43.8085L73.9312 37.9685L71.9112 43.8085H75.9512ZM87.3476 34.7485C88.8143 34.7485 90.101 35.0352 91.2076 35.6085C92.3276 36.1818 93.1876 37.0018 93.7876 38.0685C94.401 39.1218 94.7076 40.3485 94.7076 41.7485C94.7076 43.1485 94.401 44.3752 93.7876 45.4285C93.1876 46.4685 92.3276 47.2752 91.2076 47.8485C90.101 48.4218 88.8143 48.7085 87.3476 48.7085H82.4676V34.7485H87.3476ZM87.2476 46.3285C88.7143 46.3285 89.8476 45.9285 90.6476 45.1285C91.4476 44.3285 91.8476 43.2018 91.8476 41.7485C91.8476 40.2952 91.4476 39.1618 90.6476 38.3485C89.8476 37.5218 88.7143 37.1085 87.2476 37.1085H85.2676V46.3285H87.2476ZM103.284 48.8485C101.977 48.8485 100.777 48.5418 99.6836 47.9285C98.5903 47.3152 97.7236 46.4685 97.0836 45.3885C96.4436 44.2952 96.1236 43.0618 96.1236 41.6885C96.1236 40.3285 96.4436 39.1085 97.0836 38.0285C97.7236 36.9352 98.5903 36.0818 99.6836 35.4685C100.777 34.8552 101.977 34.5485 103.284 34.5485C104.604 34.5485 105.804 34.8552 106.884 35.4685C107.977 36.0818 108.837 36.9352 109.464 38.0285C110.104 39.1085 110.424 40.3285 110.424 41.6885C110.424 43.0618 110.104 44.2952 109.464 45.3885C108.837 46.4685 107.977 47.3152 106.884 47.9285C105.79 48.5418 104.59 48.8485 103.284 48.8485ZM103.284 46.3485C104.124 46.3485 104.864 46.1618 105.504 45.7885C106.144 45.4018 106.644 44.8552 107.004 44.1485C107.364 43.4418 107.544 42.6218 107.544 41.6885C107.544 40.7552 107.364 39.9418 107.004 39.2485C106.644 38.5418 106.144 38.0018 105.504 37.6285C104.864 37.2552 104.124 37.0685 103.284 37.0685C102.444 37.0685 101.697 37.2552 101.044 37.6285C100.404 38.0018 99.9036 38.5418 99.5436 39.2485C99.1836 39.9418 99.0036 40.7552 99.0036 41.6885C99.0036 42.6218 99.1836 43.4418 99.5436 44.1485C99.9036 44.8552 100.404 45.4018 101.044 45.7885C101.697 46.1618 102.444 46.3485 103.284 46.3485ZM122.687 39.0685C122.687 39.8152 122.507 40.5152 122.147 41.1685C121.8 41.8218 121.247 42.3485 120.487 42.7485C119.74 43.1485 118.793 43.3485 117.647 43.3485H115.307V48.7085H112.507V34.7485H117.647C118.727 34.7485 119.647 34.9352 120.407 35.3085C121.167 35.6818 121.733 36.1952 122.107 36.8485C122.493 37.5018 122.687 38.2418 122.687 39.0685ZM117.527 41.0885C118.3 41.0885 118.873 40.9152 119.247 40.5685C119.62 40.2085 119.807 39.7085 119.807 39.0685C119.807 37.7085 119.047 37.0285 117.527 37.0285H115.307V41.0885H117.527ZM134.175 34.7485V37.0085H130.455V48.7085H127.655V37.0085H123.935V34.7485H134.175Z" fill="#FAD16F"/>
<defs>
<clipPath id="clip0_43_295">
<rect width="50.6056" height="44.2777" fill="white" transform="translate(0 7.49136)"/>
</clipPath>
</defs>
</svg>
